<?xml version="1.0" standalone="no"?>
<!DOCTYPE svg PUBLIC "-//W3C//DTD SVG 20010904//EN"
 "http://www.w3.org/TR/2001/REC-SVG-20010904/DTD/svg10.dtd">
<svg version="1.0" xmlns="http://www.w3.org/2000/svg"
 width="512.000000pt" height="128.000000pt" viewBox="0 0 512.000000 128.000000"
 preserveAspectRatio="xMidYMid meet">

<g transform="translate(0.000000,128.000000) scale(0.100000,-0.100000)"
fill="#000000" stroke="none">
<path d="M451 1262 c-47 -23 -72 -61 -78 -113 -15 -150 180 -216 264 -90 80
120 -57 269 -186 203z"/>
<path d="M1981 1176 c-86 -184 -86 -183 -86 -431 0 -218 0 -220 28 -282 50
-116 52 -149 20 -420 l-5 -43 150 0 150 0 12 50 c7 27 12 118 13 202 0 149 -9
211 -47 300 -7 14 7 16 136 20 161 3 193 14 236 79 45 65 14 167 -62 203 -26
12 -65 16 -164 16 -72 0 -137 3 -146 6 -24 9 -19 53 12 109 l27 50 161 5 c132
4 165 8 187 23 39 26 67 76 67 120 0 23 8 51 21 68 l20 29 -341 0 -340 0 -49
-104z"/>
<path d="M3223 1194 c-165 -144 -238 -247 -249 -355 -3 -30 -15 -76 -26 -103
-33 -80 -12 -145 62 -191 32 -20 50 -45 91 -128 29 -56 68 -127 89 -157 20
-30 45 -71 55 -90 27 -53 72 -104 120 -139 l43 -31 204 0 203 0 37 30 c76 63
120 216 83 293 -35 73 -134 103 -206 61 -19 -11 -43 -39 -57 -67 -24 -45 -26
-47 -69 -47 -24 0 -53 5 -64 10 -15 9 -54 72 -87 142 -2 3 16 9 40 13 72 11
171 37 200 52 70 35 147 130 236 293 47 86 69 187 58 262 -9 62 -73 156 -135
203 l-49 35 -240 0 -240 0 -99 -86z m427 -183 c38 -10 36 -42 -6 -122 -55
-104 -87 -134 -157 -149 -57 -11 -60 -11 -133 24 -41 19 -74 40 -74 46 0 23
44 73 124 141 l81 69 70 -1 c39 -1 81 -4 95 -8z"/>
<path d="M4178 1263 c-25 -27 -38 -69 -38 -118 0 -24 -11 -95 -25 -159 -28
-130 -31 -215 -10 -329 15 -89 41 -146 96 -220 54 -70 74 -141 72 -247 -2 -71
2 -93 22 -137 l24 -53 190 0 191 0 21 41 c29 58 126 357 149 459 10 47 21 112
25 145 11 105 73 284 114 333 92 110 112 173 76 242 -25 48 -52 60 -134 60
l-75 0 -59 -62 c-32 -35 -73 -85 -92 -113 -40 -61 -111 -289 -125 -401 -11
-88 -39 -221 -50 -243 -5 -10 -14 0 -29 34 -12 27 -40 73 -63 102 -70 92 -83
186 -46 333 30 118 31 262 2 310 l-20 35 -100 3 c-86 2 -103 0 -116 -15z"/>
<path d="M1132 899 c-70 -35 -107 -110 -147 -298 -8 -41 -31 -109 -49 -150
-61 -139 -81 -318 -45 -419 l11 -33 141 3 141 3 7 28 c5 17 2 51 -7 84 -18 70
-9 125 41 239 19 43 35 87 35 96 0 9 5 20 10 23 11 7 44 -62 90 -185 74 -201
91 -247 102 -267 11 -22 17 -23 134 -23 140 0 144 2 144 82 0 43 -39 177 -67
232 -8 16 -24 56 -35 90 -25 76 -96 228 -145 309 -105 175 -242 245 -361 186z"/>
<path d="M453 710 c-62 -37 -80 -104 -54 -192 16 -50 21 -109 27 -291 l7 -227
150 0 150 0 -7 253 c-7 264 -15 316 -59 392 -46 80 -141 110 -214 65z"/>
</g>
</svg>
